<svg xmlns="http://www.w3.org/2000/svg" xmlns:xlink="http://www.w3.org/1999/xlink" width="500" zoomAndPan="magnify" viewBox="0 0 375 374.999991" height="500" preserveAspectRatio="xMidYMid meet" version="1.0"><defs><clipPath id="416e3e5ce1"><path d="M 38.140625 11.039062 L 336.640625 11.039062 L 336.640625 364.289062 L 38.140625 364.289062 Z M 38.140625 11.039062 " clip-rule="nonzero"/></clipPath></defs><g clip-path="url(#416e3e5ce1)"><path fill="#ffffff" d="M 39.0625 138.058594 C 39.113281 143.8125 41.300781 149.058594 44.863281 153.050781 L 46.726562 154.902344 C 50.777344 158.507812 56.09375 160.722656 61.949219 160.722656 C 67.972656 160.722656 73.433594 158.382812 77.527344 154.589844 L 78.714844 153.398438 C 80.578125 151.398438 82.089844 149.0625 83.144531 146.492188 C 84.242188 143.828125 84.859375 140.917969 84.859375 137.851562 L 84.835938 137.367188 C 95.535156 91.136719 137.082031 56.5625 186.59375 56.5625 C 244.195312 56.5625 291.050781 103.34375 291.050781 160.847656 C 291.050781 206.84375 260.871094 245.78125 207.714844 259.589844 L 207.714844 205.296875 L 96.832031 282.925781 L 207.714844 364.230469 L 207.714844 306.289062 C 287.578125 290.386719 336.632812 231.28125 336.632812 160.847656 C 336.632812 78.25 269.328125 11.054688 186.59375 11.054688 C 111.632812 11.054688 49.390625 66.234375 38.34375 138.035156 C 38.578125 138.035156 38.824219 138.050781 39.0625 138.058594 " fill-opacity="1" fill-rule="nonzero"/></g></svg>