<svg xmlns="http://www.w3.org/2000/svg" xmlns:xlink="http://www.w3.org/1999/xlink" width="100" zoomAndPan="magnify" viewBox="0 0 75 74.999997" height="100" preserveAspectRatio="xMidYMid meet" version="1.0"><defs><clipPath id="efcefb781a"><path d="M 0 8.113281 L 75 8.113281 L 75 66.613281 L 0 66.613281 Z M 0 8.113281 " clip-rule="nonzero"/></clipPath></defs><g clip-path="url(#efcefb781a)"><path fill="#ffffff" d="M 71.695312 10.226562 L 71.230469 9.878906 C 69.722656 8.667969 67.867188 8.148438 66.125 8.320312 C 64.269531 8.496094 62.585938 9.300781 61.367188 10.746094 L 45.707031 29.105469 L 36.425781 40.25 L 29.640625 48.390625 L 25 43.484375 L 22.390625 40.769531 L 13.226562 31.242188 C 11.890625 29.859375 10.152344 29.164062 8.292969 29.050781 C 6.554688 28.933594 4.699219 29.683594 3.363281 30.953125 L 2.898438 31.417969 C 0.0585938 34.015625 0 38.519531 2.609375 41.289062 L 11.660156 50.757812 L 14.269531 53.589844 L 24.710938 64.5 C 25.929688 65.714844 27.550781 66.523438 29.117188 66.578125 C 29.234375 66.578125 29.234375 66.578125 29.292969 66.578125 C 29.410156 66.578125 29.464844 66.578125 29.640625 66.578125 C 29.640625 66.578125 29.640625 66.578125 29.757812 66.578125 C 30.046875 66.578125 30.277344 66.578125 30.625 66.578125 C 32.484375 66.40625 34.164062 65.597656 35.382812 64.15625 L 50.929688 45.792969 L 57.019531 38.460938 L 72.5625 20.101562 C 75 17.15625 74.652344 12.765625 71.695312 10.226562 Z M 71.695312 10.226562 " fill-opacity="1" fill-rule="nonzero"/></g></svg>