<svg xmlns="http://www.w3.org/2000/svg" xmlns:xlink="http://www.w3.org/1999/xlink" width="100" zoomAndPan="magnify" viewBox="0 0 75 74.999997" height="100" preserveAspectRatio="xMidYMid meet" version="1.0"><path fill="#ffffff" d="M 37.5 0.00390625 C 58.179688 0.00390625 75 16.824219 75 37.5 C 75 58.175781 58.179688 74.996094 37.5 74.996094 C 16.824219 74.996094 0 58.175781 0 37.5 C 0 16.824219 16.824219 0.00390625 37.5 0.00390625 Z M 47.777344 22.789062 L 37.5 33.0625 L 27.226562 22.785156 C 26 21.5625 24.015625 21.5625 22.789062 22.785156 C 21.5625 24.011719 21.5625 26 22.789062 27.222656 L 33.0625 37.5 L 22.785156 47.777344 C 21.5625 49 21.5625 50.988281 22.785156 52.210938 C 24.015625 53.4375 26 53.4375 27.226562 52.214844 L 37.5 41.9375 L 47.777344 52.210938 C 49 53.4375 50.988281 53.4375 52.210938 52.214844 C 53.4375 50.988281 53.4375 49 52.210938 47.777344 L 41.9375 37.5 L 52.210938 27.222656 C 53.4375 26 53.4375 24.011719 52.210938 22.789062 C 50.988281 21.5625 49 21.5625 47.777344 22.789062 Z M 47.777344 22.789062 " fill-opacity="1" fill-rule="evenodd"/></svg>