<svg xmlns="http://www.w3.org/2000/svg" xmlns:xlink="http://www.w3.org/1999/xlink" width="100" zoomAndPan="magnify" viewBox="0 0 75 74.999997" height="100" preserveAspectRatio="xMidYMid meet" version="1.0"><defs><clipPath id="4458bb2a56"><path d="M 4.828125 47 L 70.078125 47 L 70.078125 75 L 4.828125 75 Z M 4.828125 47 " clip-rule="nonzero"/></clipPath></defs><path fill="#ffffff" d="M 37.574219 0.398438 C 35.59375 0.398438 33.988281 2.007812 33.988281 3.992188 L 33.988281 42.503906 L 25.585938 34.09375 C 22.210938 30.8125 17.234375 35.773438 20.515625 39.167969 C 20.515625 39.167969 35.039062 53.710938 35.039062 53.710938 C 36.394531 55.117188 38.75 55.074219 40.109375 53.710938 C 40.109375 53.710938 54.628906 39.167969 54.628906 39.167969 C 57.898438 35.78125 52.953125 30.808594 49.558594 34.09375 C 49.558594 34.09375 41.15625 42.503906 41.15625 42.503906 L 41.15625 3.992188 C 41.15625 2.007812 39.550781 0.398438 37.574219 0.398438 Z M 37.574219 0.398438 " fill-opacity="1" fill-rule="nonzero"/><g clip-path="url(#4458bb2a56)"><path fill="#ffffff" d="M 8.53125 47.582031 C 6.550781 47.582031 4.945312 49.1875 4.945312 51.171875 L 4.945312 56.46875 C 4.945312 66.464844 13.070312 74.601562 23.050781 74.601562 L 52.09375 74.601562 C 62.074219 74.601562 70.199219 66.464844 70.199219 56.46875 L 70.199219 51.171875 C 70.199219 49.1875 68.59375 47.582031 66.613281 47.582031 C 64.632812 47.582031 63.027344 49.1875 63.027344 51.171875 L 63.027344 56.46875 C 63.027344 62.507812 58.121094 67.417969 52.09375 67.417969 L 23.050781 67.417969 C 17.023438 67.417969 12.117188 62.507812 12.117188 56.46875 L 12.117188 51.171875 C 12.117188 49.1875 10.511719 47.582031 8.53125 47.582031 Z M 8.53125 47.582031 " fill-opacity="1" fill-rule="nonzero"/></g></svg>