<svg xmlns="http://www.w3.org/2000/svg" xmlns:xlink="http://www.w3.org/1999/xlink" width="73" zoomAndPan="magnify" viewBox="0 0 54.75 47.25" height="63" preserveAspectRatio="xMidYMid meet" version="1.0"><defs><clipPath id="ef76a38213"><path d="M 0.304688 0 L 54.199219 0 L 54.199219 46.511719 L 0.304688 46.511719 Z M 0.304688 0 " clip-rule="nonzero"/></clipPath></defs><g clip-path="url(#ef76a38213)"><path fill="#ffffff" d="M 27.4375 66.304688 C 51.160156 66.304688 70.457031 47.007812 70.457031 23.289062 C 70.457031 -0.433594 51.160156 -19.726562 27.4375 -19.726562 C 3.71875 -19.726562 -15.578125 -0.433594 -15.578125 23.289062 C -15.578125 47.007812 3.71875 66.304688 27.4375 66.304688 Z M 3.71875 21.765625 L 22.015625 3.453125 C 22.617188 2.855469 23.398438 2.5625 24.183594 2.5625 C 24.980469 2.5625 25.765625 2.855469 26.363281 3.453125 C 27.5625 4.667969 27.5625 6.601562 26.363281 7.800781 L 13.304688 20.859375 L 48.992188 20.859375 C 50.683594 20.859375 52.066406 22.242188 52.066406 23.933594 C 52.066406 25.621094 50.683594 27.003906 48.992188 27.003906 L 13.304688 27.003906 L 25.074219 38.773438 C 26.273438 39.972656 26.273438 41.90625 25.074219 43.121094 C 23.875 44.320312 21.925781 44.320312 20.726562 43.121094 L 3.71875 26.097656 C 2.519531 24.902344 2.519531 22.964844 3.71875 21.765625 Z M 3.71875 21.765625 " fill-opacity="1" fill-rule="nonzero"/></g></svg>