<svg xmlns="http://www.w3.org/2000/svg" xmlns:xlink="http://www.w3.org/1999/xlink" width="700" zoomAndPan="magnify" viewBox="0 0 525 157.5" height="210" preserveAspectRatio="xMidYMid meet" version="1.0"><defs><g/></defs><g fill="#370466" fill-opacity="1"><g transform="translate(2.266999, 126.643733)"><g><path d="M 11.4375 -95.296875 L 55.6875 -95.296875 C 66.664062 -95.296875 74.96875 -92.484375 80.59375 -86.859375 C 84.945312 -82.503906 87.125 -77.101562 87.125 -70.65625 L 87.125 -70.390625 C 87.125 -67.660156 86.785156 -65.25 86.109375 -63.15625 C 85.429688 -61.070312 84.523438 -59.191406 83.390625 -57.515625 C 82.253906 -55.835938 80.9375 -54.363281 79.4375 -53.09375 C 77.9375 -51.820312 76.328125 -50.734375 74.609375 -49.828125 C 80.140625 -47.742188 84.492188 -44.90625 87.671875 -41.3125 C 90.847656 -37.726562 92.4375 -32.757812 92.4375 -26.40625 L 92.4375 -26.140625 C 92.4375 -21.785156 91.597656 -17.972656 89.921875 -14.703125 C 88.242188 -11.429688 85.835938 -8.707031 82.703125 -6.53125 C 79.578125 -4.351562 75.8125 -2.71875 71.40625 -1.625 C 67 -0.539062 62.117188 0 56.765625 0 L 11.4375 0 Z M 66.296875 -67.125 C 66.296875 -70.289062 65.113281 -72.710938 62.75 -74.390625 C 60.394531 -76.078125 56.992188 -76.921875 52.546875 -76.921875 L 31.859375 -76.921875 L 31.859375 -56.765625 L 51.1875 -56.765625 C 55.8125 -56.765625 59.484375 -57.554688 62.203125 -59.140625 C 64.929688 -60.734375 66.296875 -63.300781 66.296875 -66.84375 Z M 71.609375 -29 C 71.609375 -32.175781 70.382812 -34.691406 67.9375 -36.546875 C 65.488281 -38.410156 61.539062 -39.34375 56.09375 -39.34375 L 31.859375 -39.34375 L 31.859375 -18.375 L 56.765625 -18.375 C 61.398438 -18.375 65.03125 -19.210938 67.65625 -20.890625 C 70.289062 -22.578125 71.609375 -25.1875 71.609375 -28.71875 Z M 71.609375 -29 "/></g></g></g><g fill="#370466" fill-opacity="1"><g transform="translate(92.391857, 126.643733)"><g><path d="M 45.0625 1.640625 C 39.4375 1.640625 34.21875 0.664062 29.40625 -1.28125 C 24.59375 -3.238281 20.4375 -5.921875 16.9375 -9.328125 C 13.445312 -12.734375 10.703125 -16.726562 8.703125 -21.3125 C 6.710938 -25.894531 5.71875 -30.816406 5.71875 -36.078125 L 5.71875 -36.34375 C 5.71875 -41.613281 6.710938 -46.539062 8.703125 -51.125 C 10.703125 -55.707031 13.472656 -59.722656 17.015625 -63.171875 C 20.554688 -66.617188 24.734375 -69.335938 29.546875 -71.328125 C 34.359375 -73.328125 39.617188 -74.328125 45.328125 -74.328125 C 50.960938 -74.328125 56.179688 -73.351562 60.984375 -71.40625 C 65.796875 -69.457031 69.945312 -66.78125 73.4375 -63.375 C 76.9375 -59.96875 79.679688 -55.972656 81.671875 -51.390625 C 83.671875 -46.804688 84.671875 -41.882812 84.671875 -36.625 L 84.671875 -36.34375 C 84.671875 -31.082031 83.671875 -26.160156 81.671875 -21.578125 C 79.679688 -16.992188 76.914062 -12.976562 73.375 -9.53125 C 69.832031 -6.082031 65.65625 -3.359375 60.84375 -1.359375 C 56.039062 0.640625 50.78125 1.640625 45.0625 1.640625 Z M 45.328125 -16.203125 C 48.328125 -16.203125 50.984375 -16.722656 53.296875 -17.765625 C 55.609375 -18.804688 57.582031 -20.234375 59.21875 -22.046875 C 60.851562 -23.867188 62.101562 -25.984375 62.96875 -28.390625 C 63.832031 -30.796875 64.265625 -33.359375 64.265625 -36.078125 L 64.265625 -36.34375 C 64.265625 -39.070312 63.804688 -41.640625 62.890625 -44.046875 C 61.984375 -46.453125 60.664062 -48.582031 58.9375 -50.4375 C 57.21875 -52.300781 55.175781 -53.773438 52.8125 -54.859375 C 50.457031 -55.953125 47.875 -56.5 45.0625 -56.5 C 42.0625 -56.5 39.40625 -55.972656 37.09375 -54.921875 C 34.78125 -53.878906 32.804688 -52.453125 31.171875 -50.640625 C 29.535156 -48.828125 28.285156 -46.71875 27.421875 -44.3125 C 26.566406 -41.90625 26.140625 -39.34375 26.140625 -36.625 L 26.140625 -36.34375 C 26.140625 -33.625 26.59375 -31.0625 27.5 -28.65625 C 28.40625 -26.25 29.71875 -24.113281 31.4375 -22.25 C 33.164062 -20.394531 35.1875 -18.921875 37.5 -17.828125 C 39.820312 -16.742188 42.429688 -16.203125 45.328125 -16.203125 Z M 45.328125 -16.203125 "/></g></g></g><g fill="#370466" fill-opacity="1"><g transform="translate(174.620519, 126.643733)"><g><path d="M 45.0625 1.640625 C 39.4375 1.640625 34.21875 0.664062 29.40625 -1.28125 C 24.59375 -3.238281 20.4375 -5.921875 16.9375 -9.328125 C 13.445312 -12.734375 10.703125 -16.726562 8.703125 -21.3125 C 6.710938 -25.894531 5.71875 -30.816406 5.71875 -36.078125 L 5.71875 -36.34375 C 5.71875 -41.613281 6.710938 -46.539062 8.703125 -51.125 C 10.703125 -55.707031 13.472656 -59.722656 17.015625 -63.171875 C 20.554688 -66.617188 24.734375 -69.335938 29.546875 -71.328125 C 34.359375 -73.328125 39.617188 -74.328125 45.328125 -74.328125 C 50.960938 -74.328125 56.179688 -73.351562 60.984375 -71.40625 C 65.796875 -69.457031 69.945312 -66.78125 73.4375 -63.375 C 76.9375 -59.96875 79.679688 -55.972656 81.671875 -51.390625 C 83.671875 -46.804688 84.671875 -41.882812 84.671875 -36.625 L 84.671875 -36.34375 C 84.671875 -31.082031 83.671875 -26.160156 81.671875 -21.578125 C 79.679688 -16.992188 76.914062 -12.976562 73.375 -9.53125 C 69.832031 -6.082031 65.65625 -3.359375 60.84375 -1.359375 C 56.039062 0.640625 50.78125 1.640625 45.0625 1.640625 Z M 45.328125 -16.203125 C 48.328125 -16.203125 50.984375 -16.722656 53.296875 -17.765625 C 55.609375 -18.804688 57.582031 -20.234375 59.21875 -22.046875 C 60.851562 -23.867188 62.101562 -25.984375 62.96875 -28.390625 C 63.832031 -30.796875 64.265625 -33.359375 64.265625 -36.078125 L 64.265625 -36.34375 C 64.265625 -39.070312 63.804688 -41.640625 62.890625 -44.046875 C 61.984375 -46.453125 60.664062 -48.582031 58.9375 -50.4375 C 57.21875 -52.300781 55.175781 -53.773438 52.8125 -54.859375 C 50.457031 -55.953125 47.875 -56.5 45.0625 -56.5 C 42.0625 -56.5 39.40625 -55.972656 37.09375 -54.921875 C 34.78125 -53.878906 32.804688 -52.453125 31.171875 -50.640625 C 29.535156 -48.828125 28.285156 -46.71875 27.421875 -44.3125 C 26.566406 -41.90625 26.140625 -39.34375 26.140625 -36.625 L 26.140625 -36.34375 C 26.140625 -33.625 26.59375 -31.0625 27.5 -28.65625 C 28.40625 -26.25 29.71875 -24.113281 31.4375 -22.25 C 33.164062 -20.394531 35.1875 -18.921875 37.5 -17.828125 C 39.820312 -16.742188 42.429688 -16.203125 45.328125 -16.203125 Z M 45.328125 -16.203125 "/></g></g></g><g fill="#370466" fill-opacity="1"><g transform="translate(256.849174, 126.643733)"><g><path d="M 9.25 -99.375 L 29.953125 -99.375 L 29.953125 -46.421875 L 54.1875 -72.96875 L 78.96875 -72.96875 L 51.1875 -44.25 L 79.921875 0 L 55.953125 0 L 37.296875 -29.953125 L 29.953125 -22.1875 L 29.953125 0 L 9.25 0 Z M 9.25 -99.375 "/></g></g></g><g fill="#ff914d" fill-opacity="1"><g transform="translate(329.268058, 126.643733)"><g><path d="M 11.4375 -95.296875 L 34.03125 -95.296875 L 59.078125 -55 L 84.140625 -95.296875 L 106.734375 -95.296875 L 106.734375 0 L 85.90625 0 L 85.90625 -62.21875 L 59.078125 -21.515625 L 58.546875 -21.515625 L 32 -61.8125 L 32 0 L 11.4375 0 Z M 11.4375 -95.296875 "/></g></g></g><g fill="#ff914d" fill-opacity="1"><g transform="translate(439.26953, 126.643733)"><g><path d="M 43.84375 1.640625 C 38.394531 1.640625 33.332031 0.734375 28.65625 -1.078125 C 23.976562 -2.898438 19.9375 -5.488281 16.53125 -8.84375 C 13.132812 -12.207031 10.484375 -16.179688 8.578125 -20.765625 C 6.671875 -25.347656 5.71875 -30.453125 5.71875 -36.078125 L 5.71875 -36.34375 C 5.71875 -41.519531 6.601562 -46.421875 8.375 -51.046875 C 10.144531 -55.679688 12.617188 -59.722656 15.796875 -63.171875 C 18.972656 -66.617188 22.757812 -69.335938 27.15625 -71.328125 C 31.5625 -73.328125 36.441406 -74.328125 41.796875 -74.328125 C 47.878906 -74.328125 53.144531 -73.238281 57.59375 -71.0625 C 62.039062 -68.882812 65.738281 -65.957031 68.6875 -62.28125 C 71.632812 -58.601562 73.8125 -54.378906 75.21875 -49.609375 C 76.625 -44.847656 77.328125 -39.882812 77.328125 -34.71875 C 77.328125 -33.894531 77.300781 -33.03125 77.25 -32.125 C 77.207031 -31.21875 77.144531 -30.265625 77.0625 -29.265625 L 26.28125 -29.265625 C 27.269531 -24.546875 29.332031 -20.984375 32.46875 -18.578125 C 35.601562 -16.171875 39.484375 -14.96875 44.109375 -14.96875 C 47.554688 -14.96875 50.640625 -15.554688 53.359375 -16.734375 C 56.085938 -17.921875 58.90625 -19.832031 61.8125 -22.46875 L 73.65625 -11.984375 C 70.207031 -7.710938 66.03125 -4.375 61.125 -1.96875 C 56.226562 0.4375 50.46875 1.640625 43.84375 1.640625 Z M 57.171875 -42.203125 C 56.535156 -46.828125 54.898438 -50.566406 52.265625 -53.421875 C 49.640625 -56.285156 46.148438 -57.71875 41.796875 -57.71875 C 37.441406 -57.71875 33.925781 -56.3125 31.25 -53.5 C 28.570312 -50.6875 26.820312 -46.921875 26 -42.203125 Z M 57.171875 -42.203125 "/></g></g></g></svg>