<svg xmlns="http://www.w3.org/2000/svg" xmlns:xlink="http://www.w3.org/1999/xlink" width="73" zoomAndPan="magnify" viewBox="0 0 54.75 47.25" height="63" preserveAspectRatio="xMidYMid meet" version="1.0"><defs><clipPath id="3047f6ece9"><path d="M 0.304688 0 L 54.199219 0 L 54.199219 46.511719 L 0.304688 46.511719 Z M 0.304688 0 " clip-rule="nonzero"/></clipPath></defs><g clip-path="url(#3047f6ece9)"><path fill="#ffffff" d="M 0.304688 0 L 54.445312 0 L 54.445312 54.140625 L 0.304688 54.140625 Z M 0.304688 0 " fill-opacity="1" fill-rule="nonzero"/><path fill="#ffffff" d="M 0.304688 0 L 54.445312 0 L 54.445312 46.722656 L 0.304688 46.722656 Z M 0.304688 0 " fill-opacity="1" fill-rule="nonzero"/><path fill="#370466" d="M 0.304688 0 L 54.445312 0 L 54.445312 46.722656 L 0.304688 46.722656 Z M 0.304688 0 " fill-opacity="1" fill-rule="nonzero"/><path fill="#ff914d" d="M 27.300781 -19.589844 C 3.582031 -19.589844 -15.714844 -0.292969 -15.714844 23.425781 C -15.714844 47.148438 3.582031 66.441406 27.300781 66.441406 C 51.019531 66.441406 70.316406 47.148438 70.316406 23.425781 C 70.316406 -0.292969 51.019531 -19.589844 27.300781 -19.589844 Z M 51.019531 24.949219 L 32.722656 43.261719 C 32.125 43.859375 31.339844 44.152344 30.558594 44.152344 C 29.757812 44.152344 28.976562 43.859375 28.375 43.261719 C 27.175781 42.046875 27.175781 40.109375 28.375 38.914062 L 41.433594 25.855469 L 5.746094 25.855469 C 4.054688 25.855469 2.671875 24.472656 2.671875 22.78125 C 2.671875 21.089844 4.054688 19.707031 5.746094 19.707031 L 41.433594 19.707031 L 29.667969 7.941406 C 28.46875 6.742188 28.46875 4.808594 29.667969 3.59375 C 30.863281 2.394531 32.816406 2.394531 34.015625 3.59375 L 51.019531 20.613281 C 52.21875 21.8125 52.21875 23.75 51.019531 24.949219 Z M 51.019531 24.949219 " fill-opacity="1" fill-rule="nonzero"/></g></svg>